# xmcd
#
# Track frame offsets:
#	150
#	2387
#	26728
#	45607
#	67945
#	92224
#	97918
#	114884
#	135347
#	156770
#	178544
#	180250
#	205716
#	231990
#	256038
#	258521
#	278697
#	301939
#	324273
#	344299
#
# Disc length: 4652 seconds
#
# Revision: 80782407
# Processed by: cddbd v1.5.2PL0 Copyright (c) Steve Scherf et al.
# Submitted via: EasyCDDAExtractor 12.0.7.1
#
DISCID=f2122a14
DTITLE=Eminem - The Eminem Show
DYEAR=2002
DGENRE=Rap
TTITLE0=Curtains Up (skit)
TTITLE1=White America
TTITLE2=Business
TTITLE3=Cleanin Out My Closet
TTITLE4=Square Dance
TTITLE5=The Kiss (skit)
TTITLE6=Soldier
TTITLE7=Say Goodbye Hollywood
TTITLE8=Drips
TTITLE9=Without Me
TTITLE10=Paul Rosenberg (skit)
TTITLE11=Sing For The Moment
TTITLE12=Superman
TTITLE13=Hailie's Song
TTITLE14=Steve Berman (skit)
TTITLE15=When The Music Stops
TTITLE16=Say What You Say
TTITLE17='Till I Collapse
TTITLE18=My Dad's Gone Crazy
TTITLE19=Curtains Close (skit)
EXTD=
EXTT0=
EXTT1=
EXTT2=
EXTT3=
EXTT4=
EXTT5=
EXTT6=
EXTT7=
EXTT8=
EXTT9=
EXTT10=
EXTT11=
EXTT12=
EXTT13=
EXTT14=
EXTT15=
EXTT16=
EXTT17=
EXTT18=
EXTT19=
PLAYORDER=
